<svg width="16" height="16" viewBox="0 0 16 16" fill="none" xmlns="http://www.w3.org/2000/svg">
<path fill-rule="evenodd" clip-rule="evenodd" d="M7.71832 8.83011C7.62503 9.09572 7.33045 9.23296 7.07223 9.12085C6.32044 8.79445 5.60497 8.38898 4.93801 7.91099C3.8562 8.65873 2.66652 9.23498 1.41109 9.62027C1.15844 9.69781 0.895883 9.55345 0.792141 9.31039C0.69831 9.09054 0.591007 8.87682 0.470887 8.67043C0.280752 8.34374 0.450078 7.89645 0.815782 7.80086C1.77234 7.55081 2.69169 7.17135 3.54801 6.67199C3.04141 6.12034 2.60816 5.50559 2.25901 4.84299C1.96983 4.29904 1.73856 3.72623 1.56901 3.13399C1.21104 3.13399 0.945467 3.14135 0.68027 3.15607C0.388857 3.17225 0.140015 2.94425 0.140015 2.65239V1.94167C0.140015 1.64436 0.397918 1.41359 0.694657 1.43201C0.992339 1.45049 1.29065 1.45816 1.58901 1.45499H3.79801V0.854985L3.79807 0.842083C3.79874 0.52617 4.03319 0.234985 4.34911 0.234985H5.13687C5.45248 0.234985 5.68648 0.529384 5.68701 0.844985V1.45499H8.06902C8.36763 1.45832 8.6662 1.45071 8.96413 1.43219C9.26096 1.41374 9.51901 1.64452 9.51901 1.94193V2.64647C9.51901 2.94048 9.26663 3.16961 8.97302 3.15419C8.71659 3.14072 8.44181 3.13399 8.10002 3.13399C7.95718 3.80472 7.72722 4.45389 7.41601 5.06499C7.11947 5.65065 6.74656 6.19439 6.30701 6.68199C6.74719 6.94312 7.20953 7.16421 7.68843 7.3428C7.9548 7.44213 8.1035 7.73352 8.00929 8.00174L7.71832 8.83011ZM6.13701 3.13399H3.48801C3.74656 4.04355 4.22733 4.87451 4.88701 5.55199C5.49502 4.86024 5.9242 4.03002 6.13701 3.13399ZM13.5011 15.0566C13.6294 15.4775 14.0177 15.7651 14.4577 15.7651H14.5867C15.2766 15.7651 15.7593 15.083 15.5297 14.4323L12.6945 6.39735C12.5534 5.9975 12.1755 5.7301 11.7515 5.7301H10.5765C10.1521 5.7301 9.77384 5.99807 9.63309 6.39852L6.80903 14.4335C6.58043 15.0839 7.06305 15.7651 7.75246 15.7651H7.88336C8.32336 15.7651 8.71166 15.4775 8.83993 15.0566L9.34902 13.3861H12.992L13.5011 15.0566ZM11.355 7.9521C11.4424 8.2341 11.8194 9.4531 12.486 11.6091H9.88202C10.5927 9.3071 11.0234 7.86477 11.174 7.2821C11.21 7.4461 11.271 7.6691 11.355 7.9521Z" fill="#B3B7BB"/>
</svg>
