<svg width="16" height="16" viewBox="0 0 16 16" fill="none" xmlns="http://www.w3.org/2000/svg">
<path d="M9.33335 4.66667H6.66669V1.33333C6.66669 0.596667 7.26335 0 8.00002 0C8.73669 0 9.33335 0.596667 9.33335 1.33333V4.66667Z" fill="#B3B7BB"/>
<path d="M15.3333 3.33337H10.6667V6.00004H5.33333V3.33337H0.666667C0.298667 3.33337 0 3.63204 0 4.00004V15.3334C0 15.7014 0.298667 16 0.666667 16H15.3333C15.7013 16 16 15.7014 16 15.3334V4.00004C16 3.63204 15.7013 3.33337 15.3333 3.33337ZM5.33333 8.00004C6.07 8.00004 6.66667 8.59671 6.66667 9.33337C6.66667 10.07 6.07 10.6667 5.33333 10.6667C4.59667 10.6667 4 10.07 4 9.33337C4 8.59671 4.59667 8.00004 5.33333 8.00004ZM2.66667 13.3334C2.66667 12.2287 3.562 11.3334 4.66667 11.3334H6C7.10467 11.3334 8 12.2287 8 13.3334H2.66667ZM13.3333 12.6667H9.33333V11.3334H13.3333V12.6667ZM13.3333 10H9.33333V8.66671H13.3333V10Z" fill="#B3B7BB"/>
</svg>
