<svg width="16" height="16" viewBox="0 0 16 16" fill="none" xmlns="http://www.w3.org/2000/svg">
<g clip-path="url(#clip0_210_232)">
<path d="M12.5051 13.5878C13.6433 13.5878 14.2841 13.0097 14.5395 12.4944H14.5933V13.4354H15.9018V8.86461C15.9018 6.86151 14.3244 6.46269 13.231 6.46269C11.9852 6.46269 10.838 6.96458 10.3899 8.21931L11.6491 8.50611C11.8463 8.01766 12.3482 7.54713 13.2489 7.54713C14.1138 7.54713 14.5574 7.99974 14.5574 8.77946V8.81083C14.5574 9.29928 14.0555 9.29032 12.8187 9.43372C11.5147 9.58608 10.1793 9.92665 10.1793 11.4906C10.1793 12.8439 11.1965 13.5878 12.5051 13.5878ZM12.7963 12.5123C12.039 12.5123 11.4923 12.1717 11.4923 11.5085C11.4923 10.7915 12.1286 10.5361 12.9039 10.433C13.3386 10.3748 14.3692 10.2583 14.5619 10.0656V10.9528C14.5619 11.7684 13.9121 12.5123 12.7963 12.5123Z" fill="#B3B7BB"/>
<g clip-path="url(#clip1_210_232)">
<path d="M8.40541 13.0585C8.51453 13.3314 8.77882 13.5103 9.07274 13.5103C9.58119 13.5103 9.92887 12.9968 9.74003 12.5247L5.97739 3.11811C5.82552 2.73845 5.45782 2.4895 5.04891 2.4895H4.95014C4.54124 2.4895 4.17353 2.73845 4.02167 3.11811L0.259283 12.5241C0.0703232 12.9965 0.418229 13.5103 0.927019 13.5103C1.22109 13.5103 1.48554 13.3313 1.59475 13.0583L2.75559 10.1562H7.2449L8.40541 13.0585ZM3.33011 8.71867L5.00001 4.54465L6.66894 8.71867H3.33011Z" fill="#B3B7BB"/>
</g>
<path d="M15.5727 12.8347C15.7991 13.2498 16.3608 13.662 15.2184 13.6192C14.2732 13.5838 14.6666 13.3744 14.6715 13.0842C14.6764 12.7939 14.9293 12.5628 15.2363 12.568C15.5432 12.5732 15.2352 12.6277 15.5727 12.8347Z" fill="#B3B7BB"/>
<ellipse cx="11.0233" cy="8.34922" rx="0.64376" ry="0.289454" transform="rotate(12.7645 11.0233 8.34922)" fill="#B3B7BB"/>
</g>
<defs>
<clipPath id="clip0_210_232">
<rect width="16" height="16" fill="white"/>
</clipPath>
<clipPath id="clip1_210_232">
<rect width="11.5" height="11.5" fill="white" transform="translate(-0.75 2.25)"/>
</clipPath>
</defs>
</svg>
