<svg width="16" height="16" viewBox="0 0 16 16" fill="none" xmlns="http://www.w3.org/2000/svg">
<path d="M8 0C3.589 0 0 3.589 0 8C0 12.411 3.589 16 8 16C12.411 16 16 12.411 16 8C16 3.589 12.411 0 8 0ZM9 3.5C9.5525 3.5 10 3.9475 10 4.5C10 5.0525 9.5525 5.5 9 5.5C8.4475 5.5 8 5.0525 8 4.5C8 3.9475 8.4475 3.5 9 3.5ZM9.90754 11.9167C9.89121 11.9834 9.84321 12.0381 9.77935 12.0633C8.9511 12.39 8.68404 12.5 8.1225 12.5C7.6455 12.5 7.2745 12.3835 7.01 12.151C6.4875 11.691 6.5755 11.027 6.739 10.347L7.231 8.6055C7.326 8.247 7.5185 7.5145 7.249 7.2575C7.06677 7.08372 6.72085 7.10175 6.40308 7.17369C6.22283 7.2145 6.04653 7.05613 6.09053 6.87663V6.87663C6.1081 6.80494 6.1589 6.74597 6.22735 6.71838C6.73522 6.51367 7.34998 6.2855 7.88 6.2855C8.735 6.2855 9.3605 6.713 9.3605 7.52C9.3605 7.5955 9.3515 7.7285 9.334 7.9195C9.301 8.27 9.291 8.247 8.745 10.18C8.684 10.3925 8.5895 10.844 8.5895 11.0625C8.5895 11.6897 9.133 11.7339 9.5941 11.6288C9.76752 11.5892 9.94984 11.7439 9.90754 11.9167V11.9167Z" fill="#B3B7BB"/>
</svg>
