<svg width="16" height="16" viewBox="0 0 16 16" fill="none" xmlns="http://www.w3.org/2000/svg">
<circle cx="8" cy="8" r="8" fill="#B3B7BB"/>
<path d="M8.15525 4.88278C8.37079 4.54413 8.12752 4.10095 7.7261 4.10095V4.10095C7.55217 4.10095 7.3903 4.18981 7.29692 4.33655L5.56851 7.05271L3.84007 4.3365C3.74672 4.18979 3.58488 4.10095 3.41099 4.10095V4.10095C3.00968 4.10095 2.76646 4.544 2.98192 4.88258L4.96569 8.00001L2.98191 11.1174C2.76646 11.456 3.00968 11.8991 3.41099 11.8991V11.8991C3.58488 11.8991 3.74672 11.8102 3.84007 11.6635L5.56851 8.94731L7.29696 11.6635C7.39031 11.8102 7.55215 11.8991 7.72603 11.8991V11.8991C8.12735 11.8991 8.37057 11.456 8.15511 11.1174L6.17134 8.00001L8.15525 4.88278Z" fill="white"/>
<path d="M9.82183 11.4136C9.82183 11.6817 9.60449 11.8991 9.33638 11.8991V11.8991C9.06827 11.8991 8.85092 11.6817 8.85092 11.4136V5.10095C8.85092 4.54867 9.29864 4.10095 9.85092 4.10095H11.44C12.0409 4.10095 12.6171 4.351 13.0419 4.79609C13.4668 5.24118 13.7055 5.84484 13.7055 6.47429C13.7055 7.10374 13.4668 7.70741 13.0419 8.1525C12.6171 8.59759 12.0409 8.84763 11.44 8.84763H9.82183V11.4136ZM9.82183 7.83049H11.44C11.7834 7.83049 12.1126 7.6876 12.3554 7.43327C12.5982 7.17893 12.7346 6.83398 12.7346 6.47429C12.7346 6.11461 12.5982 5.76965 12.3554 5.51532C12.1126 5.26098 11.7834 5.1181 11.44 5.1181H9.82183V7.83049Z" fill="white"/>
</svg>
