<svg width="16" height="16" viewBox="0 0 16 16" fill="none" xmlns="http://www.w3.org/2000/svg">
<path d="M14 3.33337H4.77799C4.38132 3.33337 4.00799 3.50804 3.75332 3.81271L0.975321 7.14671C0.563321 7.64138 0.563321 8.35871 0.975321 8.85471L3.75332 12.188C4.00799 12.492 4.38132 12.6667 4.77799 12.6667H14C14.7353 12.6667 15.3333 12.0687 15.3333 11.3334V4.66671C15.3333 3.93137 14.7353 3.33337 14 3.33337ZM4.66665 8.66671C4.29865 8.66671 3.99999 8.36804 3.99999 8.00004C3.99999 7.63204 4.29865 7.33337 4.66665 7.33337C5.03465 7.33337 5.33332 7.63204 5.33332 8.00004C5.33332 8.36804 5.03465 8.66671 4.66665 8.66671ZM7.33332 8.66671C6.96532 8.66671 6.66665 8.36804 6.66665 8.00004C6.66665 7.63204 6.96532 7.33337 7.33332 7.33337C7.70132 7.33337 7.99999 7.63204 7.99999 8.00004C7.99999 8.36804 7.70132 8.66671 7.33332 8.66671ZM9.99999 8.66671C9.63199 8.66671 9.33332 8.36804 9.33332 8.00004C9.33332 7.63204 9.63199 7.33337 9.99999 7.33337C10.368 7.33337 10.6667 7.63204 10.6667 8.00004C10.6667 8.36804 10.368 8.66671 9.99999 8.66671ZM12.6667 8.66671C12.2987 8.66671 12 8.36804 12 8.00004C12 7.63204 12.2987 7.33337 12.6667 7.33337C13.0347 7.33337 13.3333 7.63204 13.3333 8.00004C13.3333 8.36804 13.0347 8.66671 12.6667 8.66671Z" fill="#B3B7BB"/>
</svg>
