<svg width="18" height="18" viewBox="0 0 18 18" fill="none" xmlns="http://www.w3.org/2000/svg">
<path d="M13.6513 14.6387V14.1436C13.6513 13.428 13.2679 12.7675 12.6466 12.4127L10.5077 11.1887" fill="#B3B7BB"/>
<path d="M13.6513 14.6387V14.1436C13.6513 13.428 13.2679 12.7675 12.6466 12.4127L10.5077 11.1887" stroke="#B3B7BB" stroke-width="2" stroke-miterlimit="10" stroke-linecap="round" stroke-linejoin="round"/>
<path d="M7.48966 11.1874L5.35338 12.4127C4.7321 12.7675 4.34869 13.428 4.34869 14.1436V14.6387" stroke="#B3B7BB" stroke-width="2" stroke-miterlimit="10" stroke-linecap="round" stroke-linejoin="round"/>
<path d="M9 11.6579C7.53217 11.6579 6.3421 10.4678 6.3421 9.00002V7.67108C6.3421 6.20326 7.53217 5.01318 9 5.01318C10.4678 5.01318 11.6579 6.20326 11.6579 7.67108V9.00002C11.6579 10.4678 10.4678 11.6579 9 11.6579Z" fill="#B3B7BB"/>
<path d="M4.34868 13.6513C4.34868 12.1835 6.01478 10.9934 8.06973 10.9934L9.93025 10.9934C11.9852 10.9934 13.6513 12.1835 13.6513 13.6513C13.6513 15.1191 11.9852 16.3092 9.93025 16.3092L8.06973 16.3092C6.01478 16.3092 4.34868 15.1191 4.34868 13.6513Z" fill="#B3B7BB"/>
<path d="M9 16.3092C13.0368 16.3092 16.3092 13.0368 16.3092 9C16.3092 4.96324 13.0368 1.6908 9 1.6908C4.96324 1.6908 1.6908 4.96324 1.6908 9C1.6908 13.0368 4.96324 16.3092 9 16.3092Z" stroke="#B3B7BB" stroke-width="2" stroke-miterlimit="10" stroke-linecap="round" stroke-linejoin="round"/>
</svg>
