<svg width="16" height="16" viewBox="0 0 16 16" fill="none" xmlns="http://www.w3.org/2000/svg">
<path d="M8 0.333374C6.86071 0.334073 5.73589 0.58868 4.70736 1.07868C3.67882 1.56868 2.77241 2.28175 2.05406 3.16603C1.33571 4.05032 0.823477 5.08359 0.554604 6.1907C0.28573 7.29782 0.26698 8.45094 0.499718 9.5662C0.732455 10.6815 1.21083 11.7308 1.90005 12.638C2.58927 13.5452 3.47201 14.2874 4.48407 14.8105C5.49614 15.3337 6.61208 15.6248 7.75075 15.6625C8.88942 15.7002 10.0222 15.4837 11.0667 15.0287L11.9827 14.6287L11.1827 12.796L10.266 13.196C9.55159 13.5087 8.77984 13.669 8 13.6667C6.87924 13.6667 5.78365 13.3344 4.85177 12.7117C3.91989 12.089 3.19358 11.204 2.76469 10.1686C2.33579 9.13313 2.22357 7.99375 2.44222 6.89453C2.66087 5.7953 3.20057 4.7856 3.99307 3.9931C4.78556 3.2006 5.79527 2.66091 6.89449 2.44226C7.99372 2.22361 9.13309 2.33583 10.1685 2.76472C11.204 3.19362 12.089 3.91993 12.7117 4.85181C13.3343 5.78369 13.6667 6.87928 13.6667 8.00004V8.66671C13.6667 8.93192 13.5613 9.18628 13.3738 9.37381C13.1862 9.56135 12.9319 9.66671 12.6667 9.66671C12.4015 9.66671 12.1471 9.56135 11.9596 9.37381C11.772 9.18628 11.6667 8.93192 11.6667 8.66671V4.33337H9.66667V4.73804C9.07051 4.43185 8.40183 4.29491 7.73329 4.3421C7.06476 4.38929 6.42195 4.61881 5.87471 5.00571C5.32748 5.39262 4.89675 5.92211 4.62934 6.53665C4.36192 7.15118 4.26806 7.82726 4.35794 8.4914C4.44782 9.15554 4.718 9.78235 5.13914 10.3037C5.56027 10.8251 6.11624 11.221 6.74663 11.4485C7.37702 11.6761 8.05772 11.7265 8.71474 11.5943C9.37177 11.4621 9.98 11.1523 10.4733 10.6987C10.8813 11.1429 11.414 11.4534 12.0016 11.5894C12.5891 11.7254 13.2041 11.6806 13.7657 11.4608C14.3274 11.2411 14.8095 10.8567 15.1487 10.358C15.4879 9.85937 15.6685 9.26981 15.6667 8.66671V8.00004C15.6644 5.96742 14.8559 4.0187 13.4186 2.58142C11.9813 1.14414 10.0326 0.335668 8 0.333374V0.333374ZM8 9.66671C7.67037 9.66671 7.34813 9.56896 7.07405 9.38582C6.79997 9.20269 6.58635 8.94239 6.4602 8.63785C6.33406 8.3333 6.30105 7.99819 6.36536 7.67489C6.42967 7.35159 6.5884 7.05462 6.82149 6.82153C7.05458 6.58844 7.35155 6.42971 7.67485 6.3654C7.99815 6.30109 8.33327 6.3341 8.63781 6.46024C8.94235 6.58639 9.20265 6.80001 9.38579 7.07409C9.56892 7.34817 9.66667 7.67041 9.66667 8.00004C9.66667 8.44207 9.49108 8.86599 9.17851 9.17855C8.86595 9.49111 8.44203 9.66671 8 9.66671V9.66671Z" fill="#B3B7BB"/>
</svg>
