<svg width="16" height="16" viewBox="0 0 16 16" fill="none" xmlns="http://www.w3.org/2000/svg">
<path d="M14.6667 0.666626H1.33332C1.15651 0.666626 0.986943 0.736864 0.861919 0.861888C0.736894 0.986912 0.666656 1.15648 0.666656 1.33329V14.6666C0.666656 14.8434 0.736894 15.013 0.861919 15.138C0.986943 15.2631 1.15651 15.3333 1.33332 15.3333H14.6667C14.8435 15.3333 15.013 15.2631 15.1381 15.138C15.2631 15.013 15.3333 14.8434 15.3333 14.6666V1.33329C15.3333 1.15648 15.2631 0.986912 15.1381 0.861888C15.013 0.736864 14.8435 0.666626 14.6667 0.666626ZM5.33332 2.66663C5.33332 2.29844 5.6318 1.99996 5.99999 1.99996H6.66666C7.03485 1.99996 7.33332 2.29844 7.33332 2.66663V2.66663C7.33332 3.03482 7.03485 3.33329 6.66666 3.33329H5.99999C5.6318 3.33329 5.33332 3.03482 5.33332 2.66663V2.66663ZM9.28541 7.57121C9.60908 7.76541 9.60908 8.2345 9.28541 8.42871L7.4239 9.54561C7.09064 9.74557 6.66666 9.50551 6.66666 9.11686V6.88305C6.66666 6.49441 7.09064 6.25435 7.4239 6.45431L9.28541 7.57121ZM3.99999 13.3333C3.99999 13.7015 3.70151 14 3.33332 14H2.66666C2.29847 14 1.99999 13.7015 1.99999 13.3333V13.3333C1.99999 12.9651 2.29847 12.6666 2.66666 12.6666H3.33332C3.70151 12.6666 3.99999 12.9651 3.99999 13.3333V13.3333ZM3.99999 2.66663C3.99999 3.03482 3.70151 3.33329 3.33332 3.33329H2.66666C2.29847 3.33329 1.99999 3.03482 1.99999 2.66663V2.66663C1.99999 2.29844 2.29847 1.99996 2.66666 1.99996H3.33332C3.70151 1.99996 3.99999 2.29844 3.99999 2.66663V2.66663ZM7.33332 13.3333C7.33332 13.7015 7.03485 14 6.66666 14H5.99999C5.6318 14 5.33332 13.7015 5.33332 13.3333V13.3333C5.33332 12.9651 5.6318 12.6666 5.99999 12.6666H6.66666C7.03485 12.6666 7.33332 12.9651 7.33332 13.3333V13.3333ZM10.6667 13.3333C10.6667 13.7015 10.3682 14 9.99999 14H9.33332C8.96513 14 8.66666 13.7015 8.66666 13.3333V13.3333C8.66666 12.9651 8.96513 12.6666 9.33332 12.6666H9.99999C10.3682 12.6666 10.6667 12.9651 10.6667 13.3333V13.3333ZM10.6667 2.66663C10.6667 3.03482 10.3682 3.33329 9.99999 3.33329H9.33332C8.96513 3.33329 8.66666 3.03482 8.66666 2.66663V2.66663C8.66666 2.29844 8.96513 1.99996 9.33332 1.99996H9.99999C10.3682 1.99996 10.6667 2.29844 10.6667 2.66663V2.66663ZM14 13.3333C14 13.7015 13.7015 14 13.3333 14H12.6667C12.2985 14 12 13.7015 12 13.3333V13.3333C12 12.9651 12.2985 12.6666 12.6667 12.6666H13.3333C13.7015 12.6666 14 12.9651 14 13.3333V13.3333ZM14 2.66663C14 3.03482 13.7015 3.33329 13.3333 3.33329H12.6667C12.2985 3.33329 12 3.03482 12 2.66663V2.66663C12 2.29844 12.2985 1.99996 12.6667 1.99996H13.3333C13.7015 1.99996 14 2.29844 14 2.66663V2.66663Z" fill="#B3B7BB"/>
</svg>
