<svg width="16" height="16" viewBox="0 0 16 16" fill="none" xmlns="http://www.w3.org/2000/svg">
<g clip-path="url(#clip0_210_187)">
<path d="M13.237 8.30652L12.2335 7.02752C12.1805 6.96149 12.1117 6.90989 12.0335 6.87752L10.59 6.26652C10.4995 6.22869 10.4 6.21793 10.3035 6.23552L8.5955 6.55352C8.5113 6.56924 8.43254 6.60632 8.36679 6.66122C8.30104 6.71611 8.25049 6.78698 8.22 6.86702L7.628 8.42402C7.58953 8.52497 7.5848 8.63566 7.6145 8.73952L7.978 10L7.4045 11.284C7.3746 11.3508 7.35973 11.4234 7.36094 11.4965C7.36215 11.5697 7.37941 11.6417 7.4115 11.7075L8.1145 13.15C8.15566 13.2343 8.21968 13.3052 8.29925 13.3548C8.37882 13.4044 8.47073 13.4307 8.5645 13.4305C8.59894 13.4307 8.63331 13.4272 8.667 13.42L9.9825 13.1455C10.0551 13.1309 10.1234 13.1002 10.1825 13.0555L11.192 12.2945C11.2188 12.2743 11.2435 12.2514 11.2655 12.226L12.0945 11.2885L13.0495 10.317C13.1278 10.2373 13.1771 10.1336 13.1895 10.0225L13.3425 8.67252C13.357 8.54138 13.3191 8.40982 13.237 8.30652V8.30652Z" fill="#B3B7BB"/>
<path d="M8 0C6.41775 0 4.87103 0.469192 3.55544 1.34824C2.23985 2.22729 1.21447 3.47672 0.608967 4.93853C0.00346625 6.40034 -0.15496 8.00887 0.153721 9.56072C0.462403 11.1126 1.22433 12.538 2.34315 13.6569C3.46197 14.7757 4.88743 15.5376 6.43928 15.8463C7.99113 16.155 9.59966 15.9965 11.0615 15.391C12.5233 14.7855 13.7727 13.7602 14.6518 12.4446C15.5308 11.129 16 9.58225 16 8C15.9975 5.87904 15.1538 3.84567 13.6541 2.34592C12.1543 0.846176 10.121 0.00251416 8 0V0ZM8 15C6.42355 15.0002 4.89374 14.4651 3.661 13.4825L4.161 13.263C4.24962 13.2245 4.32516 13.1611 4.3785 13.0805L5.2935 11.6925C5.36299 11.5872 5.39011 11.4596 5.36944 11.3351C5.34876 11.2107 5.28181 11.0987 5.182 11.0215L3.868 10.0025L3.339 9.0565L2.866 8.075L3.8575 6.903L5.55 6.59C5.65993 6.56962 5.75985 6.51299 5.83381 6.42915C5.90777 6.34531 5.95149 6.23911 5.958 6.1275L6.05 4.524C6.05761 4.40063 6.01892 4.27886 5.9415 4.1825L5 3L4.2335 2.109C5.01438 1.60764 5.88769 1.26763 6.802 1.109L6.8045 1.1965C6.80689 1.27361 6.82709 1.34913 6.86352 1.41713C6.89996 1.48514 6.95163 1.54379 7.0145 1.5885L7.9145 2.2285L8.6845 3.038L8.974 4.1285C9.0048 4.24366 9.07573 4.34402 9.174 4.4115L10.1315 5.072C10.1993 5.11877 10.2775 5.14808 10.3594 5.15732C10.4412 5.16657 10.524 5.15547 10.6005 5.125L11.591 4.7305L12.915 4.744C13.0119 4.74558 13.107 4.71844 13.1885 4.666L13.8885 4.2225C14.5703 5.27906 14.9543 6.49999 15.0002 7.75658C15.046 9.01316 14.752 10.2588 14.1491 11.3623C13.5462 12.4658 12.6568 13.3861 11.5746 14.0263C10.4923 14.6666 9.25742 15.0029 8 15V15Z" fill="#B3B7BB"/>
</g>
<defs>
<clipPath id="clip0_210_187">
<rect width="16" height="16" fill="white"/>
</clipPath>
</defs>
</svg>
