<svg width="40" height="40" viewBox="0 0 40 40" fill="none" xmlns="http://www.w3.org/2000/svg">
<g clip-path="url(#clip0_220_387)">
<path fill-rule="evenodd" clip-rule="evenodd" d="M20.0343 39.8291C9.11631 39.8291 0.239357 30.9473 0.239357 20.0342C0.239357 9.11621 9.1212 0.234375 20.0343 0.234375C30.9474 0.234375 39.8292 9.11621 39.8292 20.0342C39.8292 30.9522 30.9523 39.8291 20.0343 39.8291ZM20.0343 1.30371C9.70713 1.30371 1.30381 9.70703 1.30381 20.0342C1.30381 30.3613 9.70713 38.7647 20.0343 38.7647C30.3614 38.7647 38.7648 30.3613 38.7648 20.0342C38.7648 9.70703 30.3614 1.30371 20.0343 1.30371ZM14.0723 25.6055C13.6865 25.625 13.2812 25.625 12.8564 25.6055C11.1572 25.5322 9.66797 25.1856 8.30566 24.5459L10.0635 20.8203C10.918 21.2256 11.8848 21.4405 13.0273 21.4893C15.8088 21.6064 17.1516 20.6263 18.8493 19.3872L18.8525 19.3848C20.7275 18.0127 23.0566 16.3086 27.2803 16.4893C28.9795 16.5625 30.4687 16.9092 31.8311 17.5488L30.0732 21.2744C29.2187 20.8692 28.2519 20.6543 27.1094 20.6055C24.3277 20.4886 22.9895 21.4653 21.2958 22.7015L21.2842 22.71C19.5996 23.9453 17.5439 25.4444 14.0723 25.6055ZM21.0596 13.6816C21.0596 15.3104 19.7392 16.6309 18.1103 16.6309C16.4815 16.6309 15.1611 15.3104 15.1611 13.6816C15.1611 12.0528 16.4815 10.7324 18.1103 10.7324C19.7392 10.7324 21.0596 12.0528 21.0596 13.6816Z" fill="url(#paint0_linear_220_387)"/>
</g>
<defs>
<linearGradient id="paint0_linear_220_387" x1="15.1582" y1="13.6832" x2="21.0604" y2="13.6832" gradientUnits="userSpaceOnUse">
<stop stop-color="#F02350"/>
<stop offset="0.6306" stop-color="#F63E2E"/>
<stop offset="1" stop-color="#FC490E"/>
</linearGradient>
<clipPath id="clip0_220_387">
<rect width="40" height="40" fill="white"/>
</clipPath>
</defs>
</svg>
