<svg width="30" height="30" viewBox="0 0 30 30" fill="none" xmlns="http://www.w3.org/2000/svg">
<g clip-path="url(#clip0_0_320)">
<path d="M15 18.75C17.0711 18.75 18.75 17.0711 18.75 15C18.75 12.9289 17.0711 11.25 15 11.25C12.9289 11.25 11.25 12.9289 11.25 15C11.25 17.0711 12.9289 18.75 15 18.75Z" stroke="#B3B7BB" stroke-width="2" stroke-miterlimit="10" stroke-linecap="round" stroke-linejoin="round"/>
<path d="M27.2015 12.8925L25.0256 12.6206C24.7723 11.5513 24.3484 10.5298 23.7703 9.59528L25.1184 7.86184C25.437 7.45335 25.5953 6.94247 25.5635 6.42539C25.5316 5.90831 25.3119 5.42071 24.9456 5.05439C24.5792 4.68806 24.0916 4.4683 23.5745 4.43646C23.0575 4.40462 22.5466 4.56291 22.1381 4.88153L20.4047 6.22966C19.4702 5.65149 18.4486 5.22763 17.3793 4.97435L17.1075 2.79841C17.0476 2.28093 16.7996 1.80351 16.4107 1.45697C16.0218 1.11043 15.519 0.918945 14.9981 0.918945C14.4772 0.918945 13.9744 1.11043 13.5855 1.45697C13.1966 1.80351 12.9486 2.28093 12.8887 2.79841L12.6168 4.97435C11.5475 5.22763 10.526 5.65149 9.59153 6.22966L7.86184 4.88153C7.45335 4.56291 6.94247 4.40462 6.42539 4.43646C5.90831 4.4683 5.42071 4.68806 5.05439 5.05439C4.68806 5.42071 4.4683 5.90831 4.43646 6.42539C4.40462 6.94247 4.56291 7.45335 4.88153 7.86184L6.22966 9.59528C5.65149 10.5298 5.22763 11.5513 4.97434 12.6206L2.79841 12.8925C2.28093 12.9523 1.80351 13.2003 1.45697 13.5892C1.11043 13.9782 0.918945 14.4809 0.918945 15.0018C0.918945 15.5228 1.11043 16.0255 1.45697 16.4145C1.80351 16.8034 2.28093 17.0514 2.79841 17.1112L4.97434 17.3831C5.22763 18.4524 5.65149 19.4739 6.22966 20.4084L4.88153 22.1381C4.56291 22.5466 4.40462 23.0575 4.43646 23.5745C4.4683 24.0916 4.68806 24.5792 5.05439 24.9456C5.42071 25.3119 5.90831 25.5316 6.42539 25.5635C6.94247 25.5953 7.45335 25.437 7.86184 25.1184L9.59528 23.7703C10.5298 24.3484 11.5513 24.7723 12.6206 25.0256L12.8925 27.2015C12.9523 27.719 13.2003 28.1964 13.5892 28.543C13.9782 28.8895 14.4809 29.081 15.0018 29.081C15.5228 29.081 16.0255 28.8895 16.4145 28.543C16.8034 28.1964 17.0514 27.719 17.1112 27.2015L17.3831 25.0256C18.4524 24.7723 19.4739 24.3484 20.4084 23.7703L22.1418 25.1184C22.5503 25.437 23.0612 25.5953 23.5783 25.5635C24.0954 25.5316 24.583 25.3119 24.9493 24.9456C25.3156 24.5792 25.5354 24.0916 25.5672 23.5745C25.5991 23.0575 25.4408 22.5466 25.1222 22.1381L23.774 20.4047C24.3522 19.4702 24.7761 18.4486 25.0293 17.3793L27.2053 17.1075C27.7228 17.0476 28.2002 16.7996 28.5467 16.4107C28.8933 16.0218 29.0847 15.519 29.0847 14.9981C29.0847 14.4772 28.8933 13.9744 28.5467 13.5855C28.2002 13.1966 27.7228 12.9486 27.2053 12.8887L27.2015 12.8925Z" stroke="#B3B7BB" stroke-width="2" stroke-miterlimit="10" stroke-linecap="round" stroke-linejoin="round"/>
</g>
<defs>
<clipPath id="clip0_0_320">
<rect width="30" height="30" fill="white"/>
</clipPath>
</defs>
</svg>
